<svg width="512" height="781" viewBox="0 0 512 781" fill="none" xmlns="http://www.w3.org/2000/svg">
<path d="M245.954 12.24C248.847 7.81333 252.554 4.02667 255.967 0C256.034 0.68 256.154 2.02666 256.22 2.69333C256.78 2.58666 257.887 2.37333 258.434 2.26667C271.54 21.32 284.727 40.28 297.94 59.2533C349.78 135.013 402.38 210.213 454.474 285.76C459.114 292.56 463.834 299.333 468.58 306.08C471.234 311.227 475.82 315.067 478.154 320.4C482.794 325.267 485.42 331.56 489.874 336.573C492.207 340.88 495.287 344.653 498.18 348.573C500.9 353.787 504.42 358.587 506.647 364.067C507.167 368.813 509.194 373.2 510.14 377.853C511.7 386.107 511.727 394.787 510.207 403.04C509.74 404.813 509.354 406.6 508.887 408.387C507.687 411.853 506.874 415.427 506.047 419C500.714 429.347 493.967 438.76 487.22 448.187C473.647 468.307 459.38 488 445.927 508.2C440.967 514.067 437.607 521.04 432.527 526.8C431.26 529.8 429.314 532.4 427.127 534.787C407.94 563.36 387.994 591.413 368.554 619.813C349.714 646.427 331.727 673.64 312.66 700.107C297.5 723.4 281.02 745.867 265.527 768.947C263.234 771.653 261.02 774.48 259.687 777.813C258.207 778.533 256.74 779.267 255.287 780.013C250.1 775.893 246.78 770.133 243.327 764.627C239.487 760.68 237.634 755.347 233.807 751.413C220.594 731.467 206.474 712.12 193.22 692.253C173.074 663.467 153.034 634.56 133.194 605.587C131.394 602.84 129.394 600.24 127.314 597.72C125.207 592.707 120.994 589.12 118.407 584.413C100.927 559.107 83.4736 533.8 65.9136 508.547C54.7936 492.627 43.8336 476.587 32.7803 460.613C24.4336 447.68 14.4469 435.68 7.30028 422.013C6.70028 420.053 5.96693 418.147 5.19359 416.267C3.92693 413.733 3.00688 411.053 2.31355 408.333C1.83355 406.547 1.42024 404.733 1.00691 402.947C-0.326427 395.107 -0.313104 386.947 0.913563 379.093C1.6069 375.493 2.55356 371.96 3.66023 368.467C4.44689 366.64 5.26022 364.827 6.07356 363.013C6.94022 360.76 7.71361 358.48 8.46028 356.2C26.5536 329.8 44.6603 303.413 62.967 277.147C74.0336 260.76 85.7669 244.773 96.5269 228.213C101.754 222.04 105.5 214.853 110.567 208.56C128.94 181.307 147.994 154.44 166.554 127.293C168.34 125.107 170.167 122.893 171.287 120.253C176.207 114.293 179.834 107.453 184.687 101.427C187.22 96.2267 191.954 92.4933 194.127 87.0933C204.247 73.5467 213.46 59.36 223.194 45.56C225.274 41.1467 229.407 38.1333 231.207 33.5733C233.647 30.08 236.66 26.9867 238.62 23.1733C240.594 19.2 244.407 16.4533 245.954 12.24ZM245.927 55.8933C226.714 84.2267 206.714 112.027 187.794 140.547C185.527 144.973 183.847 149.707 181.274 153.973C178.967 158.08 178.26 162.747 177.18 167.253C176.714 168.573 176.274 169.92 175.874 171.267C175.274 173.44 174.754 175.627 174.087 177.773C173.74 180.013 173.46 182.267 173.154 184.507C171.674 190.12 172.194 195.987 172.02 201.72C172.02 327.52 172.02 453.307 172.02 579.093C172.167 584.853 171.687 590.72 173.087 596.387C173.42 598.627 173.7 600.88 174.034 603.147C174.54 604.907 174.967 606.693 175.394 608.507C176.46 611.96 177.54 615.427 178.367 618.96C178.807 621.333 179.554 623.653 180.434 625.933C181.447 627.64 182.407 629.4 183.367 631.173C186.38 639.533 191.767 646.56 196.46 654C203.074 663.133 209.287 672.56 215.834 681.76C217.78 685.693 221.194 688.64 223.234 692.533C225.38 696.907 229.394 700.027 231.314 704.56C236.327 710.92 240.46 717.867 245.287 724.347C246.9 728.427 250.314 731.107 254.087 733.12C256.407 732.853 258.7 732.253 260.887 731.4C265.86 726.2 268.86 719.6 273.514 714.16C281.82 701.387 291.1 689.253 299.247 676.387C316.154 652.64 332.22 628.307 349.234 604.64C373.954 567.84 399.994 531.8 424.674 494.987C428.527 490.293 431.607 485.08 435.167 480.187C446.234 464.147 457.247 448.067 468.474 432.133C470.98 427.107 475.58 423.387 477.34 417.947C480.434 411.56 482.82 404.88 483.874 397.827C484.474 390.627 483.954 383.413 482.514 376.333C481.087 371.32 478.607 366.733 476.754 361.88C469.7 350.387 461.514 339.64 454.007 328.427C435.527 301.72 416.954 275.04 398.647 248.187C389.7 235.373 380.594 222.587 371.9 209.6C365.207 200.56 359.22 191.053 352.5 182.067C339.274 162.147 325.26 142.747 311.927 122.92C310.127 120.173 308.127 117.547 306.034 115.027C305.7 114.373 305.034 113.067 304.7 112.413C292.447 94.6133 279.927 76.9867 267.9 59.08C265.514 55.56 262.914 52.12 259.727 49.3067C257.38 48.7333 254.954 48.9333 252.58 48.9067C249.914 50.7733 247.274 52.8533 245.927 55.8933Z" fill="white"/>
</svg>
