<?xml version="1.0" encoding="UTF-8" ?>
<!DOCTYPE svg PUBLIC "-//W3C//DTD SVG 1.1//EN" "http://www.w3.org/Graphics/SVG/1.1/DTD/svg11.dtd">
<svg width="1370pt" height="841pt" viewBox="0 0 1370 841" version="1.1" xmlns="http://www.w3.org/2000/svg">
<g id="#fffadbff">
</g>
<g id="#000000ff">
<path fill="#000000" opacity="1.00" d=" M 696.77 33.87 C 698.94 30.55 701.72 27.71 704.28 24.69 C 704.33 25.20 704.42 26.21 704.47 26.71 C 704.89 26.63 705.72 26.47 706.13 26.39 C 715.96 40.68 725.85 54.90 735.76 69.13 C 774.64 125.95 814.09 182.35 853.16 239.01 C 856.64 244.11 860.18 249.19 863.74 254.25 C 865.73 258.11 869.17 260.99 870.92 264.99 C 874.40 268.64 876.37 273.36 879.71 277.12 C 881.46 280.35 883.77 283.18 885.94 286.12 C 887.98 290.03 890.62 293.63 892.29 297.74 C 892.68 301.30 894.20 304.59 894.91 308.08 C 896.08 314.27 896.10 320.78 894.96 326.97 C 894.61 328.30 894.32 329.64 893.97 330.98 C 893.07 333.58 892.46 336.26 891.84 338.94 C 887.84 346.70 882.78 353.76 877.72 360.83 C 867.54 375.92 856.84 390.69 846.75 405.84 C 843.03 410.24 840.51 415.47 836.70 419.79 C 835.75 422.04 834.29 423.99 832.65 425.78 C 818.26 447.21 803.30 468.25 788.72 489.55 C 774.59 509.51 761.10 529.92 746.80 549.77 C 735.43 567.24 723.07 584.09 711.45 601.40 C 709.73 603.43 708.07 605.55 707.07 608.05 C 705.96 608.59 704.86 609.14 703.77 609.70 C 699.88 606.61 697.39 602.29 694.80 598.16 C 691.92 595.20 690.53 591.20 687.66 588.25 C 677.75 573.29 667.16 558.78 657.22 543.88 C 642.11 522.29 627.08 500.61 612.20 478.88 C 610.85 476.82 609.35 474.87 607.79 472.98 C 606.21 469.22 603.05 466.53 601.11 463.00 C 588.00 444.02 574.91 425.04 561.74 406.10 C 553.40 394.16 545.18 382.13 536.89 370.15 C 530.63 360.45 523.14 351.45 517.78 341.20 C 517.33 339.73 516.78 338.30 516.20 336.89 C 515.25 334.99 514.56 332.98 514.04 330.94 C 513.68 329.60 513.37 328.24 513.06 326.90 C 512.06 321.02 512.07 314.90 512.99 309.01 C 513.51 306.31 514.22 303.66 515.05 301.04 C 515.64 299.67 516.25 298.31 516.86 296.95 C 517.51 295.26 518.09 293.55 518.65 291.84 C 532.22 272.04 545.80 252.25 559.53 232.55 C 567.83 220.26 576.63 208.27 584.70 195.85 C 588.62 191.22 591.43 185.83 595.23 181.11 C 609.01 160.67 623.30 140.52 637.22 120.16 C 638.56 118.52 639.93 116.86 640.77 114.88 C 644.46 110.41 647.18 105.28 650.82 100.76 C 652.72 96.86 656.27 94.06 657.90 90.01 C 665.49 79.85 672.40 69.21 679.70 58.86 C 681.26 55.55 684.36 53.29 685.71 49.87 C 687.54 47.25 689.80 44.93 691.27 42.07 C 692.75 39.09 695.61 37.03 696.77 33.87 M 696.75 66.61 C 682.34 87.86 667.34 108.71 653.15 130.10 C 651.45 133.42 650.19 136.97 648.26 140.17 C 646.53 143.25 646.00 146.75 645.19 150.13 C 644.84 151.12 644.51 152.13 644.21 153.14 C 643.76 154.77 643.37 156.41 642.87 158.02 C 642.61 159.70 642.40 161.39 642.17 163.07 C 641.06 167.28 641.45 171.68 641.32 175.98 C 641.32 270.33 641.32 364.67 641.32 459.01 C 641.43 463.33 641.07 467.73 642.12 471.98 C 642.37 473.66 642.58 475.35 642.83 477.05 C 643.21 478.37 643.53 479.71 643.85 481.07 C 644.65 483.66 645.46 486.26 646.08 488.91 C 646.41 490.69 646.97 492.43 647.63 494.14 C 648.39 495.42 649.11 496.74 649.83 498.07 C 652.09 504.34 656.13 509.61 659.65 515.19 C 664.61 522.04 669.27 529.11 674.18 536.01 C 675.64 538.96 678.20 541.17 679.73 544.09 C 681.34 547.37 684.35 549.71 685.79 553.11 C 689.55 557.88 692.65 563.09 696.27 567.95 C 697.48 571.01 700.04 573.02 702.87 574.53 C 704.61 574.33 706.33 573.88 707.97 573.24 C 711.70 569.34 713.95 564.39 717.44 560.31 C 723.67 550.73 730.63 541.63 736.74 531.98 C 749.42 514.17 761.47 495.92 774.23 478.17 C 792.77 450.57 812.30 423.54 830.81 395.93 C 833.70 392.41 836.01 388.50 838.68 384.83 C 846.98 372.80 855.24 360.74 863.66 348.79 C 865.54 345.02 868.99 342.23 870.31 338.15 C 872.63 333.36 874.42 328.35 875.21 323.06 C 875.66 317.66 875.27 312.25 874.19 306.94 C 873.12 303.18 871.26 299.74 869.87 296.10 C 864.58 287.48 858.44 279.42 852.81 271.01 C 838.95 250.98 825.02 230.97 811.29 210.83 C 804.58 201.22 797.75 191.63 791.23 181.89 C 786.21 175.11 781.72 167.98 776.68 161.24 C 766.76 146.30 756.25 131.75 746.25 116.88 C 744.90 114.82 743.40 112.85 741.83 110.96 C 741.58 110.47 741.08 109.49 740.83 109.00 C 731.64 95.65 722.25 82.43 713.23 69.00 C 711.44 66.36 709.49 63.78 707.10 61.67 C 705.34 61.24 703.52 61.39 701.74 61.37 C 699.74 62.77 697.76 64.33 696.75 66.61 Z" />
<path fill="#000000" opacity="1.00" d=" M 835.25 64.79 C 835.29 63.43 835.35 62.07 835.43 60.70 C 840.45 60.73 845.47 60.86 850.49 60.61 C 850.86 61.94 851.22 63.27 851.57 64.61 C 849.54 64.70 847.50 64.71 845.49 64.71 C 845.33 69.95 845.45 75.20 845.42 80.44 C 844.41 80.48 842.38 80.56 841.37 80.60 L 841.20 79.98 C 840.78 78.03 841.90 75.58 840.43 74.00 C 842.10 71.60 840.87 68.25 841.31 65.48 L 840.36 65.65 L 840.54 64.64 C 838.76 64.70 837.01 64.75 835.25 64.79 Z" />
<path fill="#000000" opacity="1.00" d=" M 870.00 60.81 C 871.45 60.74 872.92 60.67 874.40 60.59 C 875.80 63.52 875.08 66.84 875.24 69.97 C 875.10 73.54 875.71 77.22 874.59 80.68 C 873.60 80.62 871.62 80.49 870.63 80.42 C 870.53 76.09 871.06 71.71 870.14 67.44 C 869.82 69.30 869.52 71.19 868.87 72.98 C 867.03 75.54 866.94 80.78 862.97 80.59 C 862.70 79.94 862.14 78.66 861.87 78.01 C 861.37 76.92 860.81 75.84 860.50 74.69 C 859.85 72.09 858.93 69.57 857.66 67.21 C 857.07 71.30 857.20 75.45 857.39 79.56 C 856.18 79.83 854.97 80.10 853.78 80.36 C 853.63 73.99 853.68 67.62 853.69 61.25 C 855.51 61.36 857.34 61.47 859.18 61.56 C 859.24 63.54 860.09 65.32 861.16 66.94 C 862.28 69.24 863.43 71.55 864.05 74.04 C 865.10 71.25 866.36 68.55 867.70 65.88 C 868.57 64.24 869.35 62.55 870.00 60.81 Z" />
<path fill="#000000" opacity="1.00" d=" M 842.01 679.15 C 844.64 678.47 847.36 678.36 850.06 678.16 C 858.23 677.02 866.71 677.05 874.89 678.19 C 877.23 678.37 879.64 678.40 881.93 679.11 C 885.00 679.50 888.01 680.26 891.05 680.87 C 892.04 681.22 893.04 681.56 894.06 681.91 C 895.08 682.19 896.12 682.47 897.18 682.75 C 898.38 683.27 899.60 683.74 900.85 684.22 C 902.79 684.93 906.96 685.62 905.55 688.56 C 903.62 692.94 903.16 697.73 902.15 702.36 C 900.96 702.52 899.78 702.67 898.61 702.83 C 896.10 695.41 889.09 690.59 882.13 687.72 C 880.41 687.13 878.69 686.54 876.97 686.01 C 867.87 683.67 858.25 683.92 848.99 685.00 C 845.98 685.51 842.98 686.08 840.14 687.21 C 839.10 687.54 838.08 687.88 837.07 688.24 C 825.25 692.81 815.85 702.41 810.75 713.91 C 810.50 714.40 810.00 715.39 809.75 715.89 C 807.97 720.45 807.24 725.30 806.13 730.05 C 805.47 731.99 805.37 734.04 805.17 736.07 C 803.42 747.27 804.06 758.97 807.21 769.89 C 810.10 784.89 820.31 798.21 833.88 805.20 C 835.92 806.15 837.97 807.10 840.12 807.86 C 841.36 808.30 842.61 808.73 843.88 809.19 C 845.22 809.47 846.59 809.78 847.93 810.19 C 849.62 810.45 851.32 810.71 853.00 811.18 C 860.99 811.88 869.04 811.77 877.03 811.19 C 878.99 810.68 880.99 810.35 882.96 809.86 C 883.99 809.66 885.03 809.47 886.09 809.29 C 887.35 808.76 888.63 808.28 889.94 807.83 C 891.24 807.18 893.35 806.89 893.50 805.10 C 893.67 794.91 893.50 784.70 893.30 774.51 L 892.70 774.47 C 892.53 768.85 892.34 763.24 892.28 757.62 C 894.37 757.66 896.47 757.69 898.57 757.69 L 898.48 758.32 C 899.23 758.32 900.72 758.31 901.46 758.31 L 901.55 757.72 C 903.91 757.72 906.27 757.65 908.64 757.57 C 908.67 764.21 908.24 770.84 908.29 777.49 L 907.68 777.49 C 907.69 784.82 907.66 792.16 907.68 799.51 L 908.29 799.50 C 908.21 803.38 908.58 807.26 908.49 811.15 C 905.24 813.04 901.48 813.81 897.92 814.89 C 896.30 815.32 894.64 815.62 893.02 815.96 C 886.79 817.59 880.36 818.15 874.03 819.14 C 866.06 819.57 857.98 820.00 850.06 818.86 C 846.00 818.51 841.97 817.93 838.02 816.94 C 836.68 816.59 835.37 816.28 834.06 815.94 C 832.31 815.47 830.60 814.91 828.89 814.35 C 827.60 813.80 826.31 813.28 825.04 812.74 C 821.86 811.53 818.92 809.83 815.94 808.22 C 808.56 803.41 802.18 797.11 797.34 789.76 C 795.86 786.85 794.42 783.91 792.75 781.11 C 791.93 779.15 791.37 777.09 790.84 775.05 C 790.52 773.71 790.23 772.40 789.84 771.11 C 789.46 769.77 789.10 768.44 788.70 767.14 C 788.49 765.75 788.29 764.37 788.09 763.01 C 787.21 759.75 787.53 756.34 786.83 753.06 C 786.67 750.02 786.67 746.97 786.83 743.94 C 787.49 740.66 787.29 737.29 788.07 734.04 C 788.36 732.36 788.64 730.69 789.06 729.05 C 789.42 727.73 789.79 726.43 790.22 725.14 C 790.74 723.00 791.30 720.88 791.78 718.75 C 792.42 717.43 793.04 716.11 793.65 714.78 C 794.16 713.90 794.69 713.04 795.23 712.18 C 797.81 705.97 802.29 700.71 807.08 696.08 C 811.40 691.83 816.63 688.69 821.87 685.72 C 822.97 685.25 824.06 684.78 825.17 684.32 C 826.39 683.77 827.63 683.26 828.89 682.75 C 830.87 682.08 832.86 681.43 834.86 680.77 C 837.23 680.18 839.60 679.60 842.01 679.15 Z" />
<path fill="#000000" opacity="1.00" d=" M 993.08 679.19 C 1005.46 676.50 1018.50 676.69 1030.91 679.10 C 1034.67 679.78 1038.30 680.99 1041.90 682.28 C 1050.51 685.50 1058.36 690.63 1064.87 697.11 C 1067.10 700.16 1070.35 702.48 1071.80 706.07 C 1073.21 708.03 1074.58 710.03 1075.86 712.09 C 1076.19 713.11 1076.52 714.15 1076.84 715.20 C 1077.57 717.10 1078.38 718.97 1079.23 720.84 C 1079.72 722.28 1080.25 723.71 1080.79 725.16 C 1082.51 729.93 1082.54 735.03 1082.86 740.03 C 1083.87 745.58 1083.87 751.42 1082.86 756.98 C 1082.60 760.00 1082.51 763.03 1082.21 766.05 C 1081.83 767.40 1081.52 768.76 1081.24 770.15 C 1080.85 771.14 1080.48 772.14 1080.15 773.16 C 1079.49 774.80 1078.83 776.44 1078.14 778.08 C 1077.30 780.01 1076.61 782.00 1075.95 784.00 C 1069.84 795.00 1061.15 804.82 1049.96 810.80 C 1048.37 811.68 1046.76 812.53 1045.14 813.31 C 1040.59 815.38 1035.82 816.84 1031.00 818.12 C 1029.30 818.39 1027.62 818.64 1025.98 819.11 C 1016.69 820.26 1007.24 820.23 997.95 819.18 C 996.28 818.75 994.60 818.46 992.92 818.18 C 991.58 817.80 990.25 817.48 988.92 817.19 C 987.64 816.74 986.37 816.31 985.12 815.88 C 984.07 815.54 983.05 815.20 982.04 814.86 C 980.41 814.14 978.79 813.43 977.18 812.71 C 967.93 808.35 959.98 801.56 953.77 793.49 C 952.21 790.91 950.56 788.39 948.66 786.06 C 948.11 784.65 947.58 783.23 947.14 781.81 C 945.35 778.39 943.98 774.78 942.73 771.14 C 940.93 760.24 939.31 749.04 941.11 738.03 C 941.41 735.66 941.62 733.29 941.84 730.92 C 942.22 729.25 942.51 727.58 942.79 725.91 C 943.44 724.22 944.05 722.53 944.63 720.83 C 946.93 716.63 947.90 711.75 951.04 708.03 C 957.10 697.88 966.45 689.97 976.94 684.66 C 979.98 683.51 982.83 681.86 986.03 681.12 C 987.31 680.65 988.62 680.21 989.93 679.75 C 990.97 679.56 992.02 679.38 993.08 679.19 M 998.09 685.10 C 996.75 685.42 995.42 685.75 994.11 686.11 C 992.67 686.65 991.25 687.21 989.81 687.72 C 985.92 689.46 982.10 691.41 978.75 694.07 C 972.71 698.32 968.62 704.59 964.78 710.75 C 964.46 711.81 964.12 712.87 963.75 713.92 C 962.76 715.93 961.88 718.00 961.07 720.09 C 959.19 724.55 958.78 729.40 958.30 734.17 C 956.44 745.71 957.49 757.44 959.00 768.95 C 959.48 772.11 960.54 775.13 961.68 778.11 C 962.51 780.00 963.37 781.89 964.23 783.79 C 967.96 793.16 975.46 800.83 983.91 806.22 C 985.26 806.86 986.60 807.56 987.91 808.32 C 989.53 808.95 991.17 809.57 992.80 810.24 C 993.80 810.55 994.81 810.87 995.83 811.21 C 1000.09 812.41 1004.53 812.53 1008.89 813.25 C 1010.94 813.30 1013.01 813.29 1015.10 813.24 C 1018.05 812.63 1021.07 812.49 1024.07 812.17 C 1025.39 811.76 1026.73 811.42 1028.10 811.11 C 1029.10 810.79 1030.12 810.49 1031.15 810.21 C 1032.80 809.49 1034.48 808.85 1036.20 808.28 C 1037.04 807.75 1037.89 807.23 1038.76 806.72 C 1047.85 802.12 1054.39 793.92 1059.40 785.26 C 1059.82 783.46 1060.51 781.73 1061.24 780.05 C 1061.90 778.40 1062.57 776.77 1063.29 775.15 C 1063.41 774.60 1063.64 773.50 1063.76 772.95 C 1064.29 771.33 1064.72 769.68 1065.26 768.07 C 1065.86 758.56 1067.06 749.09 1066.35 739.53 L 1065.71 739.41 C 1065.56 735.62 1065.72 731.78 1064.93 728.06 C 1064.53 726.72 1064.16 725.40 1063.75 724.09 C 1063.62 723.53 1063.38 722.42 1063.25 721.86 C 1062.42 719.96 1061.62 718.05 1060.75 716.18 C 1060.28 714.72 1059.79 713.26 1059.36 711.80 C 1057.39 708.70 1055.26 705.70 1053.34 702.58 C 1047.64 695.79 1040.42 690.12 1031.98 687.19 C 1030.69 686.68 1029.40 686.21 1028.12 685.74 C 1027.05 685.53 1026.00 685.30 1024.96 685.08 C 1018.72 683.78 1012.31 683.23 1005.95 683.81 C 1003.35 684.42 1000.67 684.47 998.09 685.10 Z" />
<path fill="#000000" opacity="1.00" d=" M 143.64 680.21 C 168.57 681.12 193.52 679.68 218.44 680.71 L 218.44 681.32 C 220.64 681.42 222.85 681.57 225.04 681.78 C 226.64 682.38 228.33 682.60 230.02 682.80 C 231.34 683.24 232.68 683.66 234.00 684.14 C 235.02 684.31 236.04 684.48 237.06 684.66 C 238.33 685.15 239.62 685.63 240.91 686.09 C 243.02 686.93 245.05 687.95 247.17 688.78 C 254.19 692.44 260.51 697.49 265.26 703.84 C 266.81 706.67 268.50 709.42 270.12 712.22 C 271.88 715.18 271.96 718.76 273.34 721.89 C 273.49 722.43 273.77 723.53 273.91 724.07 C 277.06 736.39 277.42 749.45 274.94 761.93 C 274.63 763.26 274.35 764.62 274.05 765.97 C 273.34 768.28 272.59 770.58 271.85 772.89 C 271.56 774.24 271.29 775.62 270.83 776.95 C 267.84 781.35 266.22 786.62 262.52 790.52 C 255.48 800.12 245.09 806.85 234.13 811.20 C 232.41 811.79 230.69 812.39 228.94 812.87 C 227.66 813.30 226.38 813.74 225.12 814.21 C 222.07 814.84 219.05 815.55 215.96 815.91 C 207.38 817.21 198.63 817.53 189.95 817.16 C 187.00 816.56 183.98 816.74 180.99 816.72 C 170.31 816.67 159.63 816.52 148.95 816.84 C 147.20 817.15 145.43 817.29 143.66 817.44 C 143.32 803.61 144.50 789.83 144.50 776.02 C 144.64 752.35 144.75 728.67 144.21 705.01 C 143.50 696.76 143.70 688.47 143.64 680.21 M 174.66 692.81 C 174.28 697.19 174.40 701.60 173.96 705.99 C 173.24 738.75 173.06 771.56 174.60 804.30 C 176.56 804.44 178.52 804.58 180.49 804.69 L 180.54 805.31 C 188.05 805.41 195.56 805.79 203.06 805.20 C 208.10 804.16 213.15 803.04 217.84 800.85 C 220.04 799.78 222.08 798.44 224.22 797.27 C 229.97 792.97 234.53 787.23 237.79 780.86 C 238.08 779.84 238.37 778.83 238.66 777.83 C 239.08 776.94 239.50 776.07 239.92 775.20 C 240.21 774.45 240.50 773.70 240.79 772.96 C 243.85 765.35 243.43 757.07 244.16 749.08 C 244.22 747.02 244.22 744.96 244.17 742.92 C 243.45 736.57 243.88 730.10 242.29 723.84 C 241.56 721.54 240.76 719.26 239.75 717.07 C 239.04 715.42 238.36 713.76 237.76 712.08 C 233.18 703.11 224.82 696.38 215.11 693.67 C 214.55 693.54 213.43 693.27 212.86 693.14 C 200.30 690.03 187.36 692.04 174.66 692.81 Z" />
<path fill="#000000" opacity="1.00" d=" M 371.37 680.29 C 392.92 680.85 414.48 680.15 436.04 680.38 C 439.97 680.61 443.98 680.27 447.82 681.31 C 449.68 681.49 451.55 681.61 453.42 681.71 L 453.55 682.26 C 455.35 682.41 457.15 682.65 458.90 683.12 C 460.97 683.66 463.04 684.24 465.15 684.70 C 466.37 685.16 467.61 685.64 468.84 686.12 C 470.59 686.64 472.28 687.36 473.88 688.26 C 477.83 690.05 481.65 692.26 484.95 695.10 C 489.23 698.75 493.40 702.93 495.81 708.08 C 496.29 708.99 496.78 709.91 497.29 710.84 C 498.17 712.55 499.06 714.28 499.92 716.02 C 500.39 717.62 500.79 719.24 501.26 720.86 C 502.76 728.82 504.73 736.79 504.41 744.96 C 504.89 754.56 502.30 763.87 500.34 773.17 C 498.68 776.83 496.77 780.36 495.12 784.02 C 488.54 795.49 477.90 804.26 465.91 809.71 C 464.62 810.21 463.33 810.71 462.06 811.27 C 460.39 811.86 458.70 812.40 457.00 812.89 C 455.70 813.35 454.38 813.78 453.08 814.25 C 452.03 814.42 450.98 814.61 449.94 814.82 C 443.33 816.63 436.44 816.86 429.63 816.78 L 429.54 817.37 C 428.53 817.36 426.50 817.35 425.49 817.34 L 425.39 816.75 C 408.79 816.79 392.18 816.54 375.58 816.73 L 375.45 817.32 C 374.45 817.31 372.45 817.29 371.45 817.28 C 371.67 810.87 371.26 804.41 372.16 798.06 C 372.68 768.39 372.51 738.71 372.35 709.04 C 372.21 705.04 372.58 701.01 371.83 697.06 C 371.54 691.47 371.57 685.88 371.37 680.29 M 402.33 693.41 C 402.38 696.31 402.33 699.22 402.19 702.14 C 401.08 714.38 401.53 726.73 401.33 739.02 C 401.49 757.31 400.90 775.66 402.14 793.91 C 402.34 797.36 402.35 800.83 402.48 804.29 C 404.47 804.42 406.46 804.56 408.46 804.69 L 408.56 805.31 C 415.39 805.36 422.22 805.77 429.04 805.34 C 435.61 804.66 442.03 802.83 447.95 799.90 C 453.07 797.23 457.12 793.15 461.07 789.03 C 463.71 784.15 467.33 779.75 468.21 774.09 C 468.56 773.10 468.93 772.13 469.31 771.17 C 471.04 765.26 472.44 759.19 472.47 753.00 C 472.61 743.02 473.08 732.78 469.92 723.16 C 469.60 722.13 469.27 721.11 468.93 720.11 C 468.19 718.35 467.53 716.56 467.23 714.69 C 462.93 705.27 455.05 697.23 444.94 694.29 C 435.00 690.91 424.31 691.25 413.97 691.85 C 410.14 692.80 406.07 692.00 402.33 693.41 Z" />
<path fill="#000000" opacity="1.00" d=" M 571.88 679.68 C 578.62 679.77 585.36 679.71 592.11 679.71 C 592.38 680.25 592.91 681.34 593.17 681.88 C 593.71 683.29 594.30 684.69 594.88 686.11 C 595.48 688.46 595.99 690.85 596.75 693.18 C 597.50 694.78 598.18 696.43 598.76 698.12 C 599.25 699.34 599.75 700.57 600.28 701.80 C 600.55 702.83 600.84 703.87 601.14 704.92 C 601.45 706.25 601.79 707.61 602.29 708.91 C 604.10 713.15 606.07 717.37 607.11 721.89 C 607.41 722.90 607.74 723.91 608.09 724.92 C 608.67 726.31 609.24 727.72 609.76 729.15 C 610.29 730.38 610.82 731.63 611.38 732.87 C 611.51 733.40 611.78 734.48 611.91 735.01 C 612.62 737.32 613.26 739.65 614.16 741.90 C 615.07 743.97 615.96 746.05 616.84 748.14 C 618.32 753.66 620.43 758.96 622.75 764.18 C 623.17 765.45 623.50 766.74 623.84 768.06 C 624.28 769.35 624.69 770.64 625.17 771.95 C 626.50 774.97 627.96 777.95 628.92 781.13 C 629.56 783.88 630.55 786.54 631.65 789.15 C 632.21 790.35 632.77 791.58 633.37 792.79 C 635.13 798.36 637.10 803.84 639.80 809.04 C 640.22 810.34 640.57 811.65 640.99 812.98 C 641.45 814.37 641.73 815.83 641.86 817.30 C 640.79 817.30 638.64 817.29 637.57 817.29 L 637.44 816.71 C 629.27 816.75 621.10 816.47 612.93 816.83 C 610.31 818.32 608.23 816.63 608.02 813.93 C 607.68 812.59 607.36 811.25 607.06 809.92 C 606.63 808.00 606.28 806.05 605.82 804.16 C 604.59 800.75 603.49 797.29 602.23 793.90 C 601.32 791.27 600.85 788.53 600.22 785.84 C 599.85 784.85 599.49 783.88 599.15 782.90 C 598.68 781.64 598.23 780.37 597.79 779.13 C 597.27 777.70 596.71 776.29 596.16 774.90 C 595.68 773.29 595.45 771.61 595.23 769.96 C 594.72 768.67 594.24 767.37 593.73 766.10 C 593.22 764.66 592.70 763.24 592.24 761.80 C 591.83 760.82 591.42 759.86 591.01 758.90 C 590.04 755.56 589.47 752.11 588.24 748.86 C 587.71 747.61 587.21 746.36 586.72 745.12 C 586.20 743.69 585.62 742.29 585.05 740.90 C 584.24 736.41 582.66 732.14 580.77 728.02 C 580.24 726.62 579.70 725.26 579.20 723.88 C 578.36 719.40 576.51 715.24 574.72 711.09 C 574.16 709.57 573.60 708.08 573.12 706.55 C 572.65 708.15 572.03 709.69 571.40 711.23 C 567.92 716.34 566.92 722.58 563.80 727.87 C 563.10 729.50 562.41 731.14 561.78 732.81 C 560.68 737.35 557.80 741.20 556.55 745.70 C 555.82 748.16 554.88 750.56 553.76 752.87 C 551.06 758.08 550.09 763.95 547.26 769.10 C 546.22 771.27 545.37 773.53 544.77 775.87 C 543.67 779.26 542.18 782.50 540.85 785.81 C 540.26 788.66 539.38 791.43 538.34 794.15 C 537.77 795.36 537.22 796.58 536.68 797.82 C 534.75 804.10 532.89 810.41 531.14 816.74 C 525.65 816.75 520.15 816.46 514.67 816.80 C 514.23 817.00 513.36 817.41 512.92 817.62 C 512.51 817.25 511.70 816.51 511.30 816.14 C 512.66 813.01 514.03 809.87 515.79 806.93 C 516.94 805.13 517.68 803.13 518.21 801.08 C 518.86 799.74 519.55 798.42 520.25 797.12 C 520.51 796.62 521.03 795.62 521.29 795.13 C 521.82 794.06 522.36 793.02 522.90 791.98 C 523.32 790.64 523.73 789.32 524.20 788.02 C 524.47 787.53 525.01 786.56 525.28 786.07 C 526.50 783.69 527.88 781.39 528.79 778.87 C 529.35 776.85 530.21 774.94 531.19 773.10 C 533.55 769.27 534.81 764.95 536.60 760.86 C 537.16 759.93 537.73 759.01 538.31 758.10 C 540.23 752.92 542.54 747.93 544.74 742.88 C 545.29 741.15 545.94 739.47 546.66 737.81 C 550.11 732.19 551.52 725.66 554.79 719.94 C 556.72 715.24 558.34 710.42 560.83 705.97 C 561.27 704.67 561.66 703.35 562.10 702.06 C 562.72 700.37 563.45 698.72 564.24 697.11 C 566.24 693.24 567.53 689.09 569.01 685.02 C 569.94 683.22 570.87 681.43 571.88 679.68 Z" />
<path fill="#000000" opacity="1.00" d=" M 664.27 680.29 C 682.70 680.62 701.15 680.65 719.55 679.66 L 719.47 680.28 C 724.40 680.08 729.27 680.81 734.09 681.80 C 735.34 682.29 736.61 682.77 737.87 683.30 C 738.40 683.42 739.46 683.67 739.98 683.79 C 744.23 685.73 747.87 688.61 751.20 691.86 C 753.11 695.06 755.06 698.28 756.19 701.86 C 756.49 703.21 756.83 704.58 757.26 705.92 C 757.44 709.93 757.49 713.97 757.20 717.98 C 756.76 719.34 756.43 720.73 756.13 722.14 C 755.83 723.15 755.55 724.17 755.29 725.20 C 753.36 729.41 751.81 734.01 748.23 737.15 C 745.05 740.96 740.62 743.38 736.18 745.44 C 732.64 746.71 728.99 747.79 725.19 747.86 C 725.09 749.98 726.45 751.55 727.75 753.07 C 733.84 762.06 739.95 771.07 746.27 779.92 C 754.54 791.69 762.77 803.55 771.51 815.00 C 771.60 815.44 771.79 816.33 771.88 816.77 C 763.57 816.63 755.26 816.50 746.96 816.84 C 743.66 817.54 740.28 817.41 736.94 817.48 C 735.56 812.62 731.88 808.97 729.97 804.37 C 728.66 801.45 726.38 799.11 725.05 796.22 C 723.20 792.08 719.92 788.81 718.17 784.63 C 712.83 777.04 708.41 768.87 702.85 761.44 C 701.12 757.81 697.98 755.17 696.06 751.67 C 694.85 751.53 693.64 751.42 692.45 751.32 C 692.50 762.57 692.46 773.81 692.85 785.05 C 693.76 793.34 693.05 801.73 693.83 810.05 C 694.26 812.16 694.34 814.33 694.52 816.49 C 692.17 818.00 689.45 816.50 686.92 816.69 C 680.60 816.63 674.27 816.56 667.95 816.83 C 666.47 817.07 664.99 817.27 663.51 817.44 C 663.52 814.93 663.60 812.43 663.84 809.95 C 664.80 799.87 664.50 789.63 664.68 779.50 L 665.29 779.47 C 665.39 754.82 665.34 730.18 665.31 705.53 L 664.70 705.46 C 664.77 697.07 664.46 688.68 664.27 680.29 M 693.44 691.49 C 693.37 697.34 693.32 703.19 693.14 709.04 C 692.15 720.45 692.59 731.98 692.49 743.43 C 698.74 743.61 704.97 743.40 711.13 742.24 C 712.38 741.72 713.65 741.22 714.93 740.72 C 718.33 739.49 720.95 736.85 723.29 734.19 C 725.31 731.14 725.90 727.45 727.27 724.11 C 727.87 718.40 728.03 712.63 727.25 706.93 C 726.69 705.65 726.19 704.34 725.69 703.06 C 724.25 697.48 719.01 694.02 713.94 692.05 C 711.98 691.58 709.99 691.24 708.05 690.74 C 703.19 690.66 698.12 689.89 693.44 691.49 Z" />
<path fill="#000000" opacity="1.00" d=" M 305.26 680.28 C 315.68 680.61 326.11 680.53 336.53 680.31 C 336.43 681.89 336.32 683.48 336.20 685.08 C 335.24 693.15 335.59 701.35 335.29 709.48 L 334.70 709.52 C 334.58 734.84 334.60 760.16 334.70 785.47 L 335.30 785.52 C 335.60 794.62 335.22 803.81 336.24 812.85 C 336.35 814.00 336.47 815.16 336.59 816.34 C 336.23 816.62 335.53 817.18 335.18 817.46 C 334.62 817.35 333.51 817.11 332.95 816.99 C 324.96 816.33 316.92 816.70 308.92 816.79 C 308.04 816.97 306.28 817.32 305.41 817.50 C 305.53 806.33 305.63 795.15 306.27 784.00 C 306.62 759.68 306.67 735.36 306.26 711.04 C 305.49 700.81 305.74 690.53 305.26 680.28 Z" />
<path fill="#000000" opacity="1.00" d=" M 1118.35 680.30 C 1124.08 680.53 1129.81 680.61 1135.54 680.27 C 1135.43 684.00 1135.34 687.75 1135.33 691.49 L 1134.70 691.54 C 1134.29 703.36 1134.63 715.21 1133.73 727.00 C 1133.72 742.68 1133.56 758.37 1133.84 774.05 C 1134.76 785.54 1134.11 797.14 1134.55 808.68 L 1134.56 809.76 C 1148.06 809.68 1161.58 809.51 1175.03 808.29 C 1178.96 808.14 1182.83 807.45 1186.66 806.55 C 1188.21 806.28 1189.78 806.26 1191.38 806.19 C 1191.36 807.03 1191.33 808.71 1191.32 809.55 L 1190.67 809.52 C 1190.67 810.27 1190.66 811.75 1190.66 812.50 L 1191.26 812.47 C 1191.29 813.50 1191.36 815.55 1191.40 816.57 L 1190.49 816.44 L 1190.52 817.35 C 1187.69 817.27 1184.84 817.37 1182.07 816.83 C 1167.38 816.55 1152.68 816.58 1137.99 816.56 C 1131.47 816.70 1124.90 816.30 1118.45 817.42 C 1118.45 813.59 1118.59 809.76 1118.85 805.95 C 1119.93 794.88 1119.43 783.67 1119.69 772.54 L 1120.29 772.45 C 1120.28 756.48 1120.30 740.52 1120.30 724.55 L 1119.72 724.46 C 1119.48 713.33 1119.95 702.11 1118.86 691.04 C 1118.61 687.46 1118.52 683.88 1118.35 680.30 Z" />
<path fill="#000000" opacity="1.00" d=" M 1215.71 680.37 C 1228.47 680.49 1241.24 680.61 1254.00 680.38 C 1268.02 680.38 1282.31 679.50 1296.00 683.14 C 1297.02 683.32 1298.07 683.51 1299.14 683.70 C 1300.39 684.18 1301.69 684.65 1302.99 685.15 C 1303.52 685.27 1304.60 685.50 1305.14 685.62 C 1314.11 689.37 1322.67 694.87 1328.22 703.01 C 1329.84 705.99 1331.70 708.82 1333.37 711.78 C 1335.44 719.43 1338.46 726.98 1338.59 735.02 C 1338.78 742.33 1338.84 749.66 1338.53 756.97 C 1338.20 763.31 1335.83 769.28 1334.25 775.36 C 1328.43 792.17 1314.65 805.75 1297.93 811.80 C 1296.91 812.12 1295.90 812.45 1294.91 812.79 C 1290.72 814.30 1286.38 815.35 1281.97 815.93 C 1272.44 817.35 1262.70 817.77 1253.09 816.77 C 1241.92 816.56 1230.76 816.67 1219.59 816.72 L 1219.45 817.32 C 1218.67 817.31 1217.10 817.31 1216.31 817.30 C 1216.06 807.55 1216.71 797.81 1216.58 788.06 C 1216.59 770.01 1217.71 752.00 1217.17 733.95 C 1216.21 717.20 1216.74 700.34 1216.28 683.55 L 1215.65 683.48 C 1215.67 682.70 1215.70 681.15 1215.71 680.37 M 1232.63 689.48 C 1232.40 693.29 1232.61 697.16 1231.83 700.94 C 1231.35 723.62 1231.46 746.32 1231.51 769.02 C 1231.79 778.98 1231.14 789.03 1232.18 798.95 C 1232.39 802.10 1232.47 805.26 1232.66 808.43 C 1234.41 808.58 1236.19 808.74 1237.92 809.23 C 1250.86 810.49 1264.04 811.42 1276.91 808.89 C 1279.60 808.40 1282.28 807.77 1284.88 806.86 C 1285.88 806.53 1286.90 806.21 1287.93 805.88 C 1298.43 801.94 1307.98 794.60 1313.24 784.58 C 1315.35 781.32 1317.41 777.87 1317.77 773.91 C 1318.24 772.63 1318.70 771.36 1319.21 770.10 C 1322.20 759.32 1322.78 748.09 1322.17 736.96 C 1321.28 731.90 1320.66 726.79 1319.23 721.84 C 1318.72 720.59 1318.24 719.34 1317.76 718.11 C 1317.39 713.47 1314.29 709.84 1311.91 706.08 C 1307.68 699.29 1300.55 694.84 1293.33 691.71 C 1291.83 691.27 1290.36 690.78 1288.90 690.31 C 1286.97 689.74 1285.05 689.33 1283.14 688.81 C 1269.75 686.27 1256.07 687.52 1242.54 687.73 L 1242.54 688.35 C 1239.21 688.42 1235.87 688.66 1232.63 689.48 Z" />
</g>
<g id="#8b7e6fff">
<path fill="#8b7e6f" opacity="1.00" d=" M 853.40 60.34 C 855.36 60.47 857.61 60.04 859.18 61.56 C 857.34 61.47 855.51 61.36 853.69 61.25 C 853.68 67.62 853.63 73.99 853.78 80.36 C 854.97 80.10 856.18 79.83 857.39 79.56 C 857.20 75.45 857.07 71.30 857.66 67.21 C 858.93 69.57 859.85 72.09 860.50 74.69 L 858.02 70.88 C 858.10 74.08 858.24 77.29 858.34 80.49 C 856.66 81.00 854.93 81.09 853.22 80.91 C 853.25 74.05 853.06 67.19 853.40 60.34 Z" />
</g>
<g id="#fff9dbff">
</g>
<g id="#796e60ff">
<path fill="#796e60" opacity="1.00" d=" M 1134.55 808.68 C 1148.06 808.97 1161.57 808.33 1175.04 807.34 C 1178.90 806.92 1182.76 806.23 1186.66 806.55 C 1182.83 807.45 1178.96 808.14 1175.03 808.29 C 1161.58 809.51 1148.06 809.68 1134.56 809.76 L 1134.55 808.68 Z" />
</g>
</svg>
